<svg width="31" height="30" viewBox="0 0 31 30" fill="none" xmlns="http://www.w3.org/2000/svg">
<path d="M15.8083 17.625C14.3904 17.625 13.1615 16.5 13.1615 15C13.1615 13.5938 14.2958 12.375 15.8083 12.375C17.2263 12.375 18.4552 13.5 18.4552 15C18.4552 16.4062 17.2263 17.625 15.8083 17.625Z" fill="white"/>
<path fill-rule="evenodd" clip-rule="evenodd" d="M19.0224 8.625H12.5943C11.838 8.71875 11.4599 8.8125 11.1763 8.90625C10.7982 9 10.5146 9.1875 10.231 9.46875C10.0066 9.69131 9.90057 9.91388 9.77242 10.1828C9.73864 10.2537 9.70323 10.3281 9.66381 10.4063C9.64919 10.4498 9.63231 10.4955 9.6142 10.5445C9.51531 10.8125 9.38022 11.1786 9.38022 11.8125V18.1875C9.47475 18.9375 9.56928 19.3125 9.66381 19.5938C9.75834 19.9688 9.94741 20.25 10.231 20.5313C10.4554 20.7538 10.6798 20.8589 10.951 20.986C11.0226 21.0196 11.0974 21.0547 11.1763 21.0938C11.2202 21.1083 11.2663 21.125 11.3157 21.143C11.5859 21.241 11.9551 21.375 12.5943 21.375H19.0224C19.7787 21.2812 20.1568 21.1875 20.4404 21.0938C20.8185 21 21.1021 20.8125 21.3857 20.5313C21.6101 20.3087 21.7161 20.0861 21.8443 19.8172C21.8781 19.7462 21.9135 19.672 21.9529 19.5938C21.9675 19.5503 21.9844 19.5045 22.0025 19.4555C22.1014 19.1875 22.2365 18.8214 22.2365 18.1875V11.8125C22.1419 11.0625 22.0474 10.6875 21.9529 10.4063C21.8583 10.0313 21.6693 9.75 21.3857 9.46875C21.1613 9.2462 20.9369 9.14105 20.6656 9.01395C20.5942 8.98048 20.5191 8.94532 20.4404 8.90625C20.3965 8.89175 20.3504 8.87499 20.3009 8.85705C20.0308 8.75897 19.6616 8.625 19.0224 8.625ZM15.8083 10.9688C13.5396 10.9688 11.7435 12.75 11.7435 15C11.7435 17.25 13.5396 19.0312 15.8083 19.0312C18.0771 19.0312 19.8732 17.25 19.8732 15C19.8732 12.75 18.0771 10.9688 15.8083 10.9688ZM20.913 10.875C20.913 11.3928 20.4898 11.8125 19.9677 11.8125C19.4456 11.8125 19.0224 11.3928 19.0224 10.875C19.0224 10.3572 19.4456 9.9375 19.9677 9.9375C20.4898 9.9375 20.913 10.3572 20.913 10.875Z" fill="white"/>
<path fill-rule="evenodd" clip-rule="evenodd" d="M0.68335 15C0.68335 6.71572 7.45504 0 15.8083 0C24.1617 0 30.9333 6.71572 30.9333 15C30.9333 23.2843 24.1617 30 15.8083 30C7.45504 30 0.68335 23.2843 0.68335 15ZM12.5943 7.21875H19.0224C19.8732 7.3125 20.4404 7.40625 20.913 7.59375C21.4802 7.875 21.8583 8.0625 22.331 8.53125C22.8037 9 23.0873 9.46875 23.2763 9.9375C23.4654 10.4062 23.6544 10.9688 23.6544 11.8125V18.1875C23.5599 19.0312 23.4654 19.5938 23.2763 20.0625C22.9927 20.625 22.8037 21 22.331 21.4688C21.8583 21.9375 21.3857 22.2188 20.913 22.4062C20.4404 22.5938 19.8732 22.7812 19.0224 22.7812H12.5943C11.7435 22.6875 11.1763 22.5938 10.7037 22.4062C10.1365 22.125 9.75835 21.9375 9.28569 21.4688C8.81304 21 8.52944 20.5312 8.34038 20.0625C8.15132 19.5938 7.96226 19.0312 7.96226 18.1875V11.8125C8.05679 10.9688 8.15132 10.4062 8.34038 9.9375C8.62397 9.375 8.81304 9 9.28569 8.53125C9.75835 8.0625 10.231 7.78125 10.7037 7.59375C11.1763 7.40625 11.7435 7.21875 12.5943 7.21875Z" fill="white"/>
</svg>
