<svg width="255" height="27" viewBox="0 0 255 27" fill="none" xmlns="http://www.w3.org/2000/svg">
<path d="M7.072 10.556H18.772V15.884H7.072V10.556ZM7.576 20.492H20.752V26H0.52V0.799998H20.284V6.308H7.576V20.492ZM35.7715 26.504C33.7795 26.504 31.9315 26.192 30.2275 25.568C28.5475 24.92 27.0835 24.008 25.8355 22.832C24.6115 21.656 23.6515 20.276 22.9555 18.692C22.2595 17.084 21.9115 15.32 21.9115 13.4C21.9115 11.48 22.2595 9.728 22.9555 8.144C23.6515 6.536 24.6115 5.144 25.8355 3.968C27.0835 2.792 28.5475 1.892 30.2275 1.268C31.9315 0.619998 33.7795 0.295998 35.7715 0.295998C38.0995 0.295998 40.1755 0.703999 41.9995 1.52C43.8475 2.336 45.3835 3.512 46.6075 5.048L42.0715 9.152C41.2555 8.192 40.3555 7.46 39.3715 6.956C38.4115 6.452 37.3315 6.2 36.1315 6.2C35.0995 6.2 34.1515 6.368 33.2875 6.704C32.4235 7.04 31.6795 7.532 31.0555 8.18C30.4555 8.804 29.9755 9.56 29.6155 10.448C29.2795 11.336 29.1115 12.32 29.1115 13.4C29.1115 14.48 29.2795 15.464 29.6155 16.352C29.9755 17.24 30.4555 18.008 31.0555 18.656C31.6795 19.28 32.4235 19.76 33.2875 20.096C34.1515 20.432 35.0995 20.6 36.1315 20.6C37.3315 20.6 38.4115 20.348 39.3715 19.844C40.3555 19.34 41.2555 18.608 42.0715 17.648L46.6075 21.752C45.3835 23.264 43.8475 24.44 41.9995 25.28C40.1755 26.096 38.0995 26.504 35.7715 26.504ZM60.4663 26.504C58.4503 26.504 56.5903 26.18 54.8863 25.532C53.1823 24.884 51.6943 23.972 50.4223 22.796C49.1743 21.596 48.2023 20.204 47.5063 18.62C46.8103 17.036 46.4623 15.296 46.4623 13.4C46.4623 11.504 46.8103 9.764 47.5063 8.18C48.2023 6.596 49.1743 5.216 50.4223 4.04C51.6943 2.84 53.1823 1.916 54.8863 1.268C56.5903 0.619998 58.4503 0.295998 60.4663 0.295998C62.5063 0.295998 64.3663 0.619998 66.0463 1.268C67.7503 1.916 69.2263 2.84 70.4743 4.04C71.7223 5.216 72.6943 6.596 73.3903 8.18C74.1103 9.764 74.4703 11.504 74.4703 13.4C74.4703 15.296 74.1103 17.048 73.3903 18.656C72.6943 20.24 71.7223 21.62 70.4743 22.796C69.2263 23.972 67.7503 24.884 66.0463 25.532C64.3663 26.18 62.5063 26.504 60.4663 26.504ZM60.4663 20.6C61.4263 20.6 62.3143 20.432 63.1303 20.096C63.9703 19.76 64.6903 19.28 65.2903 18.656C65.9143 18.008 66.3943 17.24 66.7303 16.352C67.0903 15.464 67.2703 14.48 67.2703 13.4C67.2703 12.296 67.0903 11.312 66.7303 10.448C66.3943 9.56 65.9143 8.804 65.2903 8.18C64.6903 7.532 63.9703 7.04 63.1303 6.704C62.3143 6.368 61.4263 6.2 60.4663 6.2C59.5063 6.2 58.6063 6.368 57.7663 6.704C56.9503 7.04 56.2303 7.532 55.6063 8.18C55.0063 8.804 54.5263 9.56 54.1663 10.448C53.8303 11.312 53.6623 12.296 53.6623 13.4C53.6623 14.48 53.8303 15.464 54.1663 16.352C54.5263 17.24 55.0063 18.008 55.6063 18.656C56.2303 19.28 56.9503 19.76 57.7663 20.096C58.6063 20.432 59.5063 20.6 60.4663 20.6Z" fill="white"/>
<path d="M97.1535 26.18C95.2815 26.18 93.5415 25.868 91.9335 25.244C90.3495 24.596 88.9695 23.696 87.7935 22.544C86.6175 21.392 85.7055 20.048 85.0575 18.512C84.4095 16.952 84.0855 15.248 84.0855 13.4C84.0855 11.552 84.4095 9.86 85.0575 8.324C85.7055 6.764 86.6175 5.408 87.7935 4.256C88.9935 3.104 90.3855 2.216 91.9695 1.592C93.5535 0.943999 95.2815 0.619998 97.1535 0.619998C98.9295 0.619998 100.585 0.907998 102.121 1.484C103.681 2.06 105.013 2.936 106.117 4.112L104.965 5.3C103.885 4.244 102.685 3.488 101.365 3.032C100.069 2.552 98.6895 2.312 97.2255 2.312C95.6175 2.312 94.1175 2.588 92.7255 3.14C91.3575 3.692 90.1575 4.472 89.1255 5.48C88.1175 6.488 87.3255 7.664 86.7495 9.008C86.1975 10.352 85.9215 11.816 85.9215 13.4C85.9215 14.984 86.1975 16.448 86.7495 17.792C87.3255 19.136 88.1175 20.312 89.1255 21.32C90.1575 22.328 91.3575 23.108 92.7255 23.66C94.1175 24.212 95.6175 24.488 97.2255 24.488C98.6895 24.488 100.069 24.26 101.365 23.804C102.685 23.324 103.885 22.544 104.965 21.464L106.117 22.652C105.013 23.828 103.681 24.716 102.121 25.316C100.585 25.892 98.9295 26.18 97.1535 26.18ZM120.932 26.18C119.06 26.18 117.32 25.868 115.712 25.244C114.128 24.596 112.736 23.696 111.536 22.544C110.36 21.368 109.448 20.012 108.8 18.476C108.152 16.916 107.828 15.224 107.828 13.4C107.828 11.576 108.152 9.896 108.8 8.36C109.448 6.8 110.36 5.444 111.536 4.292C112.736 3.116 114.128 2.216 115.712 1.592C117.32 0.943999 119.06 0.619998 120.932 0.619998C122.804 0.619998 124.532 0.943999 126.116 1.592C127.724 2.216 129.116 3.104 130.292 4.256C131.468 5.408 132.38 6.764 133.028 8.324C133.7 9.86 134.036 11.552 134.036 13.4C134.036 15.248 133.7 16.952 133.028 18.512C132.38 20.048 131.468 21.392 130.292 22.544C129.116 23.696 127.724 24.596 126.116 25.244C124.532 25.868 122.804 26.18 120.932 26.18ZM120.932 24.488C122.54 24.488 124.028 24.212 125.396 23.66C126.764 23.108 127.952 22.328 128.96 21.32C129.968 20.312 130.748 19.136 131.3 17.792C131.876 16.448 132.164 14.984 132.164 13.4C132.164 11.792 131.876 10.328 131.3 9.008C130.748 7.664 129.968 6.488 128.96 5.48C127.952 4.472 126.764 3.692 125.396 3.14C124.028 2.588 122.54 2.312 120.932 2.312C119.324 2.312 117.836 2.588 116.468 3.14C115.1 3.692 113.9 4.472 112.868 5.48C111.86 6.488 111.068 7.664 110.492 9.008C109.94 10.328 109.664 11.792 109.664 13.4C109.664 14.984 109.94 16.448 110.492 17.792C111.068 19.136 111.86 20.312 112.868 21.32C113.9 22.328 115.1 23.108 116.468 23.66C117.836 24.212 119.324 24.488 120.932 24.488ZM148.768 26.18C145.648 26.18 143.188 25.268 141.388 23.444C139.588 21.62 138.688 18.908 138.688 15.308V0.799998H140.524V15.236C140.524 18.38 141.244 20.708 142.684 22.22C144.124 23.732 146.164 24.488 148.804 24.488C151.42 24.488 153.448 23.732 154.888 22.22C156.328 20.708 157.048 18.38 157.048 15.236V0.799998H158.884V15.308C158.884 18.908 157.984 21.62 156.184 23.444C154.384 25.268 151.912 26.18 148.768 26.18ZM165.951 26V0.799998H167.499L185.463 23.732H184.635V0.799998H186.471V26H184.959L166.959 3.068H167.787V26H165.951ZM198.595 26V2.456H189.523V0.799998H209.503V2.456H200.431V26H198.595ZM212.556 26V0.799998H221.592C223.704 0.799998 225.516 1.136 227.028 1.808C228.54 2.48 229.704 3.452 230.52 4.724C231.336 5.972 231.744 7.496 231.744 9.296C231.744 11.048 231.336 12.56 230.52 13.832C229.704 15.08 228.54 16.052 227.028 16.748C225.516 17.42 223.704 17.756 221.592 17.756H213.564L214.392 16.892V26H212.556ZM230.052 26L223.5 16.856H225.588L232.14 26H230.052ZM214.392 17L213.564 16.136H221.592C224.304 16.136 226.356 15.536 227.748 14.336C229.164 13.136 229.872 11.456 229.872 9.296C229.872 7.112 229.164 5.432 227.748 4.256C226.356 3.056 224.304 2.456 221.592 2.456H213.564L214.392 1.556V17ZM242.555 26V16.856L242.987 18.044L232.403 0.799998H234.419L244.031 16.46H243.023L252.635 0.799998H254.543L243.959 18.044L244.391 16.856V26H242.555Z" fill="black"/>
</svg>
