<svg width="255" height="27" viewBox="0 0 255 27" fill="none" xmlns="http://www.w3.org/2000/svg">
<path d="M6.352 10.952H18.484V15.488H6.352V10.952ZM6.784 21.32H20.5V26H0.988V0.799998H20.032V5.48H6.784V21.32ZM35.7003 26.432C33.7563 26.432 31.9443 26.12 30.2643 25.496C28.6083 24.848 27.1683 23.936 25.9443 22.76C24.7203 21.584 23.7603 20.204 23.0643 18.62C22.3923 17.036 22.0563 15.296 22.0563 13.4C22.0563 11.504 22.3923 9.764 23.0643 8.18C23.7603 6.596 24.7203 5.216 25.9443 4.04C27.1923 2.864 28.6443 1.964 30.3003 1.34C31.9563 0.691999 33.7683 0.368 35.7363 0.368C37.9203 0.368 39.8883 0.752 41.6403 1.52C43.4163 2.264 44.9043 3.368 46.1043 4.832L42.3603 8.288C41.4963 7.304 40.5363 6.572 39.4803 6.092C38.4243 5.588 37.2723 5.336 36.0243 5.336C34.8483 5.336 33.7683 5.528 32.7843 5.912C31.8003 6.296 30.9483 6.848 30.2283 7.568C29.5083 8.288 28.9443 9.14 28.5363 10.124C28.1523 11.108 27.9603 12.2 27.9603 13.4C27.9603 14.6 28.1523 15.692 28.5363 16.676C28.9443 17.66 29.5083 18.512 30.2283 19.232C30.9483 19.952 31.8003 20.504 32.7843 20.888C33.7683 21.272 34.8483 21.464 36.0243 21.464C37.2723 21.464 38.4243 21.224 39.4803 20.744C40.5363 20.24 41.4963 19.484 42.3603 18.476L46.1043 21.932C44.9043 23.396 43.4163 24.512 41.6403 25.28C39.8883 26.048 37.9083 26.432 35.7003 26.432ZM60.2553 26.432C58.2633 26.432 56.4153 26.108 54.7113 25.46C53.0313 24.812 51.5673 23.9 50.3193 22.724C49.0953 21.548 48.1353 20.168 47.4393 18.584C46.7673 17 46.4313 15.272 46.4313 13.4C46.4313 11.528 46.7673 9.8 47.4393 8.216C48.1353 6.632 49.1073 5.252 50.3553 4.076C51.6033 2.9 53.0673 1.988 54.7473 1.34C56.4273 0.691999 58.2513 0.368 60.2193 0.368C62.2113 0.368 64.0353 0.691999 65.6913 1.34C67.3713 1.988 68.8233 2.9 70.0473 4.076C71.2953 5.252 72.2673 6.632 72.9633 8.216C73.6593 9.776 74.0073 11.504 74.0073 13.4C74.0073 15.272 73.6593 17.012 72.9633 18.62C72.2673 20.204 71.2953 21.584 70.0473 22.76C68.8233 23.912 67.3713 24.812 65.6913 25.46C64.0353 26.108 62.2233 26.432 60.2553 26.432ZM60.2193 21.464C61.3473 21.464 62.3793 21.272 63.3153 20.888C64.2753 20.504 65.1153 19.952 65.8353 19.232C66.5553 18.512 67.1073 17.66 67.4913 16.676C67.8993 15.692 68.1033 14.6 68.1033 13.4C68.1033 12.2 67.8993 11.108 67.4913 10.124C67.1073 9.14 66.5553 8.288 65.8353 7.568C65.1393 6.848 64.3113 6.296 63.3513 5.912C62.3913 5.528 61.3473 5.336 60.2193 5.336C59.0913 5.336 58.0473 5.528 57.0873 5.912C56.1513 6.296 55.3233 6.848 54.6033 7.568C53.8833 8.288 53.3193 9.14 52.9113 10.124C52.5273 11.108 52.3353 12.2 52.3353 13.4C52.3353 14.576 52.5273 15.668 52.9113 16.676C53.3193 17.66 53.8713 18.512 54.5673 19.232C55.2873 19.952 56.1273 20.504 57.0873 20.888C58.0473 21.272 59.0913 21.464 60.2193 21.464Z" fill="#0DC883"/>
<path d="M96.8722 26.18C95.0002 26.18 93.2602 25.868 91.6522 25.244C90.0682 24.596 88.6882 23.696 87.5122 22.544C86.3362 21.392 85.4242 20.048 84.7762 18.512C84.1282 16.952 83.8042 15.248 83.8042 13.4C83.8042 11.552 84.1282 9.86 84.7762 8.324C85.4242 6.764 86.3362 5.408 87.5122 4.256C88.7122 3.104 90.1042 2.216 91.6882 1.592C93.2722 0.943999 95.0002 0.619998 96.8722 0.619998C98.6482 0.619998 100.304 0.907998 101.84 1.484C103.4 2.06 104.732 2.936 105.836 4.112L104.684 5.3C103.604 4.244 102.404 3.488 101.084 3.032C99.7882 2.552 98.4082 2.312 96.9442 2.312C95.3362 2.312 93.8362 2.588 92.4442 3.14C91.0762 3.692 89.8762 4.472 88.8442 5.48C87.8362 6.488 87.0442 7.664 86.4682 9.008C85.9162 10.352 85.6402 11.816 85.6402 13.4C85.6402 14.984 85.9162 16.448 86.4682 17.792C87.0442 19.136 87.8362 20.312 88.8442 21.32C89.8762 22.328 91.0762 23.108 92.4442 23.66C93.8362 24.212 95.3362 24.488 96.9442 24.488C98.4082 24.488 99.7882 24.26 101.084 23.804C102.404 23.324 103.604 22.544 104.684 21.464L105.836 22.652C104.732 23.828 103.4 24.716 101.84 25.316C100.304 25.892 98.6482 26.18 96.8722 26.18ZM120.65 26.18C118.778 26.18 117.038 25.868 115.43 25.244C113.846 24.596 112.454 23.696 111.254 22.544C110.078 21.368 109.166 20.012 108.518 18.476C107.87 16.916 107.546 15.224 107.546 13.4C107.546 11.576 107.87 9.896 108.518 8.36C109.166 6.8 110.078 5.444 111.254 4.292C112.454 3.116 113.846 2.216 115.43 1.592C117.038 0.943999 118.778 0.619998 120.65 0.619998C122.522 0.619998 124.25 0.943999 125.834 1.592C127.442 2.216 128.834 3.104 130.01 4.256C131.186 5.408 132.098 6.764 132.746 8.324C133.418 9.86 133.754 11.552 133.754 13.4C133.754 15.248 133.418 16.952 132.746 18.512C132.098 20.048 131.186 21.392 130.01 22.544C128.834 23.696 127.442 24.596 125.834 25.244C124.25 25.868 122.522 26.18 120.65 26.18ZM120.65 24.488C122.258 24.488 123.746 24.212 125.114 23.66C126.482 23.108 127.67 22.328 128.678 21.32C129.686 20.312 130.466 19.136 131.018 17.792C131.594 16.448 131.882 14.984 131.882 13.4C131.882 11.792 131.594 10.328 131.018 9.008C130.466 7.664 129.686 6.488 128.678 5.48C127.67 4.472 126.482 3.692 125.114 3.14C123.746 2.588 122.258 2.312 120.65 2.312C119.042 2.312 117.554 2.588 116.186 3.14C114.818 3.692 113.618 4.472 112.586 5.48C111.578 6.488 110.786 7.664 110.21 9.008C109.658 10.328 109.382 11.792 109.382 13.4C109.382 14.984 109.658 16.448 110.21 17.792C110.786 19.136 111.578 20.312 112.586 21.32C113.618 22.328 114.818 23.108 116.186 23.66C117.554 24.212 119.042 24.488 120.65 24.488ZM148.486 26.18C145.366 26.18 142.906 25.268 141.106 23.444C139.306 21.62 138.406 18.908 138.406 15.308V0.799998H140.242V15.236C140.242 18.38 140.962 20.708 142.402 22.22C143.842 23.732 145.882 24.488 148.522 24.488C151.138 24.488 153.166 23.732 154.606 22.22C156.046 20.708 156.766 18.38 156.766 15.236V0.799998H158.602V15.308C158.602 18.908 157.702 21.62 155.902 23.444C154.102 25.268 151.63 26.18 148.486 26.18ZM165.669 26V0.799998H167.217L185.181 23.732H184.353V0.799998H186.189V26H184.677L166.677 3.068H167.505V26H165.669ZM198.314 26V2.456H189.242V0.799998H209.222V2.456H200.15V26H198.314ZM212.275 26V0.799998H221.311C223.423 0.799998 225.235 1.136 226.747 1.808C228.259 2.48 229.423 3.452 230.239 4.724C231.055 5.972 231.463 7.496 231.463 9.296C231.463 11.048 231.055 12.56 230.239 13.832C229.423 15.08 228.259 16.052 226.747 16.748C225.235 17.42 223.423 17.756 221.311 17.756H213.283L214.111 16.892V26H212.275ZM229.771 26L223.219 16.856H225.307L231.859 26H229.771ZM214.111 17L213.283 16.136H221.311C224.023 16.136 226.075 15.536 227.467 14.336C228.883 13.136 229.591 11.456 229.591 9.296C229.591 7.112 228.883 5.432 227.467 4.256C226.075 3.056 224.023 2.456 221.311 2.456H213.283L214.111 1.556V17ZM242.273 26V16.856L242.705 18.044L232.121 0.799998H234.137L243.749 16.46H242.741L252.353 0.799998H254.261L243.677 18.044L244.109 16.856V26H242.273Z" fill="black"/>
</svg>
